solid 3D_DinosaurGoogle
facet normal -5.340660892842585e-30 1.91304570256397e-13 1.0
  outer loop
    vertex 58.198361779620186 73.98064570258101 15.382875000002048
    vertex 61.81786177962019 77.600145702581 15.382875000001354
    vertex 58.198361779620186 77.600145702581 15.382875000001354
  endloop
endfacet
facet normal -5.340660892842585e-30 1.91304570256397e-13 1.0
  outer loop
    vertex 43.7203617796202 63.12214570258101 15.382875000004098
    vertex 54.5788617796202 66.14836983808101 15.382875000003521
    vertex 43.7203617796202 66.14836983808101 15.382875000003521
  endloop
endfacet
facet normal -5.340660892842585e-30 1.91304570256397e-13 1.0
  outer loop
    vertex 36.4813617796202 52.263645702581016 15.382875000006202
    vertex 40.1008617796202 59.50264570258102 15.382875000004793
    vertex 36.4813617796202 59.50264570258102 15.382875000004793
  endloop
endfacet
facet normal -5.340660892842585e-30 1.91304570256397e-13 1.0
  outer loop
    vertex 40.1008617796202 59.50264570258102 15.382875000004793
    vertex 36.4813617796202 52.263645702581016 15.382875000006202
    vertex 76.29586177962018 58.60617156208102 15.382875000004963
  endloop
endfacet
facet normal -5.340660892842585e-30 1.91304570256397e-13 1.0
  outer loop
    vertex 76.29586177962018 58.60617156208102 15.382875000004963
    vertex 36.4813617796202 52.263645702581016 15.382875000006202
    vertex 79.91536177962018 58.60617156208102 15.382875000004963
  endloop
endfacet
facet normal -5.340660892842585e-30 1.91304570256397e-13 1.0
  outer loop
    vertex 79.91536177962018 58.60617156208102 15.382875000004963
    vertex 36.4813617796202 52.263645702581016 15.382875000006202
    vertex 79.91536177962018 55.30852112158106 15.382875000005594
  endloop
endfacet
facet normal -5.340660892842585e-30 1.91304570256397e-13 1.0
  outer loop
    vertex 79.91536177962018 55.30852112158106 15.382875000005594
    vertex 36.4813617796202 52.263645702581016 15.382875000006202
    vertex 83.53486177962019 55.30852112158106 15.382875000005594
  endloop
endfacet
facet normal -5.340660892842585e-30 1.91304570256397e-13 1.0
  outer loop
    vertex 83.53486177962019 55.30852112158106 15.382875000005594
    vertex 36.4813617796202 52.263645702581016 15.382875000006202
    vertex 72.6763617796202 52.263645702581016 15.382875000006202
  endloop
endfacet
facet normal -5.340660892842585e-30 1.91304570256397e-13 1.0
  outer loop
    vertex 83.53486177962019 55.30852112158106 15.382875000005594
    vertex 72.6763617796202 52.263645702581016 15.382875000006202
    vertex 79.91536177962018 45.024645702581026 15.382875000007562
  endloop
endfacet
facet normal -5.340660892842585e-30 1.91304570256397e-13 1.0
  outer loop
    vertex 83.53486177962019 55.30852112158106 15.382875000005594
    vertex 79.91536177962018 45.024645702581026 15.382875000007562
    vertex 83.53486177962019 39.59539570258102 15.3828750000086
  endloop
endfacet
facet normal -5.340660892842585e-30 1.91304570256397e-13 1.0
  outer loop
    vertex 72.6763617796202 52.263645702581016 15.382875000006202
    vertex 36.4813617796202 52.263645702581016 15.382875000006202
    vertex 65.43736177962019 52.263645702581016 15.382875000006202
  endloop
endfacet
facet normal -5.340660892842585e-30 1.91304570256397e-13 1.0
  outer loop
    vertex 79.91536177962018 45.024645702581026 15.382875000007562
    vertex 72.6763617796202 52.263645702581016 15.382875000006202
    vertex 76.29586177962018 48.64414570258102 15.382875000006878
  endloop
endfacet
facet normal -5.340660892842585e-30 1.91304570256397e-13 1.0
  outer loop
    vertex 76.29586177962018 48.64414570258102 15.382875000006878
    vertex 72.6763617796202 52.263645702581016 15.382875000006202
    vertex 72.6763617796202 48.64414570258102 15.382875000006878
  endloop
endfacet
facet normal -5.340660892842585e-30 1.91304570256397e-13 1.0
  outer loop
    vertex 79.91536177962018 45.024645702581026 15.382875000007562
    vertex 76.29586177962018 48.64414570258102 15.382875000006878
    vertex 76.29586177962018 45.024645702581026 15.382875000007562
  endloop
endfacet
facet normal -5.340660892842585e-30 1.91304570256397e-13 1.0
  outer loop
    vertex 83.53486177962019 39.59539570258102 15.3828750000086
    vertex 79.91536177962018 45.024645702581026 15.382875000007562
    vertex 79.91536177962018 39.59539570258102 15.3828750000086
  endloop
endfacet
facet normal -5.340660892842585e-30 1.91304570256397e-13 1.0
  outer loop
    vertex 40.1008617796202 59.50264570258102 15.382875000004793
    vertex 43.7203617796202 63.12214570258101 15.382875000004098
    vertex 40.1008617796202 63.12214570258101 15.382875000004098
  endloop
endfacet
facet normal -5.340660892842585e-30 1.91304570256397e-13 1.0
  outer loop
    vertex 43.7203617796202 63.12214570258101 15.382875000004098
    vertex 40.1008617796202 59.50264570258102 15.382875000004793
    vertex 72.6763617796202 62.31457734058101 15.382875000004253
  endloop
endfacet
facet normal -5.340660892842585e-30 1.91304570256397e-13 1.0
  outer loop
    vertex 72.6763617796202 62.31457734058101 15.382875000004253
    vertex 40.1008617796202 59.50264570258102 15.382875000004793
    vertex 76.29586177962018 62.31457734058101 15.382875000004253
  endloop
endfacet
facet normal -5.340660892842585e-30 1.91304570256397e-13 1.0
  outer loop
    vertex 76.29586177962018 62.31457734058101 15.382875000004253
    vertex 40.1008617796202 59.50264570258102 15.382875000004793
    vertex 76.29586177962018 58.60617156208102 15.382875000004963
  endloop
endfacet
facet normal -5.340660892842585e-30 1.91304570256397e-13 1.0
  outer loop
    vertex 54.5788617796202 66.14836983808101 15.382875000003521
    vertex 58.198361779620186 73.98064570258101 15.382875000002048
    vertex 54.5788617796202 73.98064570258101 15.382875000002048
  endloop
endfacet
facet normal -5.340660892842585e-30 1.91304570256397e-13 1.0
  outer loop
    vertex 58.198361779620186 73.98064570258101 15.382875000002048
    vertex 54.5788617796202 66.14836983808101 15.382875000003521
    vertex 65.43736177962019 70.36114570258101 15.382875000002715
  endloop
endfacet
facet normal -5.340660892842585e-30 1.91304570256397e-13 1.0
  outer loop
    vertex 65.43736177962019 70.36114570258101 15.382875000002715
    vertex 54.5788617796202 66.14836983808101 15.382875000003521
    vertex 69.05686177962019 70.36114570258101 15.382875000002715
  endloop
endfacet
facet normal -5.340660892842585e-30 1.91304570256397e-13 1.0
  outer loop
    vertex 69.05686177962019 70.36114570258101 15.382875000002715
    vertex 54.5788617796202 66.14836983808101 15.382875000003521
    vertex 69.05686177962019 66.14836983808102 15.382875000003521
  endloop
endfacet
facet normal -5.340660892842585e-30 1.91304570256397e-13 1.0
  outer loop
    vertex 69.05686177962019 66.14836983808102 15.382875000003521
    vertex 54.5788617796202 66.14836983808101 15.382875000003521
    vertex 72.6763617796202 66.14836983808102 15.382875000003521
  endloop
endfacet
facet normal -5.340660892842585e-30 1.91304570256397e-13 1.0
  outer loop
    vertex 72.6763617796202 66.14836983808102 15.382875000003521
    vertex 54.5788617796202 66.14836983808101 15.382875000003521
    vertex 72.6763617796202 62.31457734058101 15.382875000004253
  endloop
endfacet
facet normal -5.340660892842585e-30 1.91304570256397e-13 1.0
  outer loop
    vertex 72.6763617796202 62.31457734058101 15.382875000004253
    vertex 54.5788617796202 66.14836983808101 15.382875000003521
    vertex 43.7203617796202 63.12214570258101 15.382875000004098
  endloop
endfacet
facet normal -5.340660892842585e-30 1.91304570256397e-13 1.0
  outer loop
    vertex 57.859033654620205 81.219645702581 15.382875000000665
    vertex 65.43736177962019 84.839145702581 15.382874999999945
    vertex 57.859033654620205 84.839145702581 15.382874999999945
  endloop
endfacet
facet normal -5.340660892842585e-30 1.91304570256397e-13 1.0
  outer loop
    vertex 65.43736177962019 84.839145702581 15.382874999999945
    vertex 57.859033654620205 81.219645702581 15.382875000000665
    vertex 61.81786177962019 81.219645702581 15.382875000000665
  endloop
endfacet
facet normal -5.340660892842585e-30 1.91304570256397e-13 1.0
  outer loop
    vertex 65.43736177962019 84.839145702581 15.382874999999945
    vertex 61.81786177962019 81.219645702581 15.382875000000665
    vertex 65.43736177962019 70.36114570258101 15.382875000002715
  endloop
endfacet
facet normal -5.340660892842585e-30 1.91304570256397e-13 1.0
  outer loop
    vertex 65.43736177962019 70.36114570258101 15.382875000002715
    vertex 61.81786177962019 81.219645702581 15.382875000000665
    vertex 61.81786177962019 77.600145702581 15.382875000001354
  endloop
endfacet
facet normal -5.340660892842585e-30 1.91304570256397e-13 1.0
  outer loop
    vertex 65.43736177962019 70.36114570258101 15.382875000002715
    vertex 61.81786177962019 77.600145702581 15.382875000001354
    vertex 58.198361779620186 73.98064570258101 15.382875000002048
  endloop
endfacet
facet normal -5.340660892842585e-30 1.91304570256397e-13 1.0
  outer loop
    vertex 32.861861779620206 41.405145702581024 15.382875000008255
    vertex 36.4813617796202 52.263645702581016 15.382875000006202
    vertex 32.861861779620206 52.263645702581016 15.382875000006202
  endloop
endfacet
facet normal -5.340660892842585e-30 1.91304570256397e-13 1.0
  outer loop
    vertex 36.4813617796202 52.263645702581016 15.382875000006202
    vertex 32.861861779620206 41.405145702581024 15.382875000008255
    vertex 65.43736177962019 52.263645702581016 15.382875000006202
  endloop
endfacet
facet normal -5.340660892842585e-30 1.91304570256397e-13 1.0
  outer loop
    vertex 65.43736177962019 52.263645702581016 15.382875000006202
    vertex 32.861861779620206 41.405145702581024 15.382875000008255
    vertex 61.81786177962019 48.64414570258102 15.382875000006878
  endloop
endfacet
facet normal -5.340660892842585e-30 1.91304570256397e-13 1.0
  outer loop
    vertex 61.81786177962019 48.64414570258102 15.382875000006878
    vertex 32.861861779620206 41.405145702581024 15.382875000008255
    vertex 58.198361779620186 45.024645702581026 15.382875000007562
  endloop
endfacet
facet normal -5.340660892842585e-30 1.91304570256397e-13 1.0
  outer loop
    vertex 58.198361779620186 45.024645702581026 15.382875000007562
    vertex 32.861861779620206 41.405145702581024 15.382875000008255
    vertex 58.198361779620186 41.405145702581024 15.382875000008255
  endloop
endfacet
facet normal -5.340660892842585e-30 1.91304570256397e-13 1.0
  outer loop
    vertex 58.198361779620186 41.405145702581024 15.382875000008255
    vertex 32.861861779620206 41.405145702581024 15.382875000008255
    vertex 50.959361779620195 41.405145702581024 15.382875000008255
  endloop
endfacet
facet normal -5.340660892842585e-30 1.91304570256397e-13 1.0
  outer loop
    vertex 18.38386177962021 26.92714570258103 15.38287500001105
    vertex 32.861861779620206 30.54664570258103 15.382875000010356
    vertex 18.38386177962021 30.54664570258103 15.382875000010356
  endloop
endfacet
facet normal -5.340660892842585e-30 1.91304570256397e-13 1.0
  outer loop
    vertex 12.954611779620416 12.449145702581033 15.382875000013794
    vertex 29.24236177962021 23.307645702581027 15.382875000011715
    vertex 12.954611779620416 23.307645702581027 15.382875000011715
  endloop
endfacet
facet normal -5.340660892842585e-30 1.91304570256397e-13 1.0
  outer loop
    vertex 29.24236177962021 23.307645702581027 15.382875000011715
    vertex 12.954611779620416 12.449145702581033 15.382875000013794
    vertex 36.4813617796202 17.328647945081034 15.38287500001286
  endloop
endfacet
facet normal -5.340660892842585e-30 1.91304570256397e-13 1.0
  outer loop
    vertex 36.4813617796202 17.328647945081034 15.38287500001286
    vertex 12.954611779620416 12.449145702581033 15.382875000013794
    vertex 36.4813617796202 13.70914794508103 15.38287500001355
  endloop
endfacet
facet normal -5.340660892842585e-30 1.91304570256397e-13 1.0
  outer loop
    vertex 36.4813617796202 13.70914794508103 15.38287500001355
    vertex 12.954611779620416 12.449145702581033 15.382875000013794
    vertex 40.1008617796202 13.70914794508103 15.38287500001355
  endloop
endfacet
facet normal -5.340660892842585e-30 1.91304570256397e-13 1.0
  outer loop
    vertex 16.574111779620416 8.829645702581033 15.38287500001451
    vertex 43.7203617796202 12.449145702581033 15.382875000013794
    vertex 16.574111779620416 12.449145702581033 15.382875000013794
  endloop
endfacet
facet normal -5.340660892842585e-30 1.91304570256397e-13 1.0
  outer loop
    vertex 43.7203617796202 12.449145702581033 15.382875000013794
    vertex 16.574111779620416 8.829645702581033 15.38287500001451
    vertex 43.7203617796202 8.829645702581033 15.38287500001451
  endloop
endfacet
facet normal -5.340660892842585e-30 1.91304570256397e-13 1.0
  outer loop
    vertex 32.861861779620206 30.54664570258103 15.382875000010356
    vertex 47.3398617796202 37.78564570258102 15.382875000008946
    vertex 32.861861779620206 37.78564570258102 15.382875000008946
  endloop
endfacet
facet normal -5.340660892842585e-30 1.91304570256397e-13 1.0
  outer loop
    vertex 47.3398617796202 37.78564570258102 15.382875000008946
    vertex 32.861861779620206 30.54664570258103 15.382875000010356
    vertex 47.3398617796202 12.449145702581033 15.382875000013794
  endloop
endfacet
facet normal -5.340660892842585e-30 1.91304570256397e-13 1.0
  outer loop
    vertex 47.3398617796202 12.449145702581033 15.382875000013794
    vertex 32.861861779620206 30.54664570258103 15.382875000010356
    vertex 29.24236177962021 26.92714570258103 15.38287500001105
  endloop
endfacet
facet normal -5.340660892842585e-30 1.91304570256397e-13 1.0
  outer loop
    vertex 29.24236177962021 26.92714570258103 15.38287500001105
    vertex 32.861861779620206 30.54664570258103 15.382875000010356
    vertex 18.38386177962021 26.92714570258103 15.38287500001105
  endloop
endfacet
facet normal -5.340660892842585e-30 1.91304570256397e-13 1.0
  outer loop
    vertex 47.3398617796202 12.449145702581033 15.382875000013794
    vertex 29.24236177962021 26.92714570258103 15.38287500001105
    vertex 40.1008617796202 17.328647945081034 15.38287500001286
  endloop
endfacet
facet normal -5.340660892842585e-30 1.91304570256397e-13 1.0
  outer loop
    vertex 40.1008617796202 17.328647945081034 15.38287500001286
    vertex 29.24236177962021 26.92714570258103 15.38287500001105
    vertex 29.24236177962021 23.307645702581027 15.382875000011715
  endloop
endfacet
facet normal -5.340660892842585e-30 1.91304570256397e-13 1.0
  outer loop
    vertex 40.1008617796202 17.328647945081034 15.38287500001286
    vertex 29.24236177962021 23.307645702581027 15.382875000011715
    vertex 36.4813617796202 17.328647945081034 15.38287500001286
  endloop
endfacet
facet normal -5.340660892842585e-30 1.91304570256397e-13 1.0
  outer loop
    vertex 47.3398617796202 12.449145702581033 15.382875000013794
    vertex 40.1008617796202 17.328647945081034 15.38287500001286
    vertex 40.1008617796202 13.70914794508103 15.38287500001355
  endloop
endfacet
facet normal -5.340660892842585e-30 1.91304570256397e-13 1.0
  outer loop
    vertex 47.3398617796202 12.449145702581033 15.382875000013794
    vertex 40.1008617796202 13.70914794508103 15.38287500001355
    vertex 12.954611779620416 12.449145702581033 15.382875000013794
  endloop
endfacet
facet normal -5.340660892842585e-30 1.91304570256397e-13 1.0
  outer loop
    vertex 47.3398617796202 12.449145702581033 15.382875000013794
    vertex 12.954611779620416 12.449145702581033 15.382875000013794
    vertex 16.574111779620416 12.449145702581033 15.382875000013794
  endloop
endfacet
facet normal -5.340660892842585e-30 1.91304570256397e-13 1.0
  outer loop
    vertex 47.3398617796202 12.449145702581033 15.382875000013794
    vertex 16.574111779620416 12.449145702581033 15.382875000013794
    vertex 43.7203617796202 12.449145702581033 15.382875000013794
  endloop
endfacet
facet normal -5.340660892842585e-30 1.91304570256397e-13 1.0
  outer loop
    vertex 25.62286177962021 37.78564570258102 15.382875000008946
    vertex 29.24236177962021 45.024645702581026 15.382875000007562
    vertex 25.62286177962021 45.024645702581026 15.382875000007562
  endloop
endfacet
facet normal -5.340660892842585e-30 1.91304570256397e-13 1.0
  outer loop
    vertex 29.24236177962021 45.024645702581026 15.382875000007562
    vertex 25.62286177962021 37.78564570258102 15.382875000008946
    vertex 29.24236177962021 41.405145702581024 15.382875000008255
  endloop
endfacet
facet normal -5.340660892842585e-30 1.91304570256397e-13 1.0
  outer loop
    vertex 29.24236177962021 41.405145702581024 15.382875000008255
    vertex 25.62286177962021 37.78564570258102 15.382875000008946
    vertex 32.861861779620206 41.405145702581024 15.382875000008255
  endloop
endfacet
facet normal -5.340660892842585e-30 1.91304570256397e-13 1.0
  outer loop
    vertex 32.861861779620206 41.405145702581024 15.382875000008255
    vertex 25.62286177962021 37.78564570258102 15.382875000008946
    vertex 50.959361779620195 41.405145702581024 15.382875000008255
  endloop
endfacet
facet normal -5.340660892842585e-30 1.91304570256397e-13 1.0
  outer loop
    vertex 50.959361779620195 41.405145702581024 15.382875000008255
    vertex 25.62286177962021 37.78564570258102 15.382875000008946
    vertex 50.959361779620195 37.78564570258102 15.382875000008946
  endloop
endfacet
facet normal -5.340660892842585e-30 1.91304570256397e-13 1.0
  outer loop
    vertex 50.959361779620195 37.78564570258102 15.382875000008946
    vertex 25.62286177962021 37.78564570258102 15.382875000008946
    vertex 32.861861779620206 37.78564570258102 15.382875000008946
  endloop
endfacet
facet normal -5.340660892842585e-30 1.91304570256397e-13 1.0
  outer loop
    vertex 50.959361779620195 37.78564570258102 15.382875000008946
    vertex 32.861861779620206 37.78564570258102 15.382875000008946
    vertex 47.3398617796202 37.78564570258102 15.382875000008946
  endloop
endfacet
facet normal -5.340660892842585e-30 1.91304570256397e-13 1.0
  outer loop
    vertex 61.81786177962019 45.024645702581026 15.382875000007562
    vertex 61.81786177962019 48.64414570258102 15.382875000006878
    vertex 58.198361779620186 45.024645702581026 15.382875000007562
  endloop
endfacet
facet normal -5.340660892842585e-30 1.91304570256397e-13 1.0
  outer loop
    vertex 65.43736177962019 48.64414570258102 15.382875000006878
    vertex 65.43736177962019 52.263645702581016 15.382875000006202
    vertex 61.81786177962019 48.64414570258102 15.382875000006878
  endloop
endfacet
facet normal 0.0 1.0 -1.91304570256397e-13
  outer loop
    vertex 32.861861779620206 41.405145702581024 15.382875000008255
    vertex 29.24236177962021 41.405145702579986 9.953625000008305
    vertex 29.24236177962021 41.405145702581024 15.382875000008255
  endloop
endfacet
facet normal 0.0 1.0 -1.91304570256397e-13
  outer loop
    vertex 29.24236177962021 41.405145702579986 9.953625000008305
    vertex 32.861861779620206 41.405145702581024 15.382875000008255
    vertex 32.861861779620206 41.405145702579986 9.953625000008305
  endloop
endfacet
facet normal 1.0 0.0 0.0
  outer loop
    vertex 29.24236177962021 45.024645702581026 15.382875000007562
    vertex 29.24236177962021 41.405145702579986 9.953625000008305
    vertex 29.24236177962021 45.02464570257999 9.953625000007612
  endloop
endfacet
facet normal 1.0 0.0 0.0
  outer loop
    vertex 29.24236177962021 41.405145702579986 9.953625000008305
    vertex 29.24236177962021 45.024645702581026 15.382875000007562
    vertex 29.24236177962021 41.405145702581024 15.382875000008255
  endloop
endfacet
facet normal 0.0 1.0 -1.91304570256397e-13
  outer loop
    vertex 29.24236177962021 45.024645702581026 15.382875000007562
    vertex 25.62286177962021 45.02464570257999 9.953625000007612
    vertex 25.62286177962021 45.024645702581026 15.382875000007562
  endloop
endfacet
facet normal 0.0 1.0 -1.91304570256397e-13
  outer loop
    vertex 25.62286177962021 45.02464570257999 9.953625000007612
    vertex 29.24236177962021 45.024645702581026 15.382875000007562
    vertex 29.24236177962021 45.02464570257999 9.953625000007612
  endloop
endfacet
facet normal -1.0 0.0 0.0
  outer loop
    vertex 25.62286177962021 37.78564570258102 15.382875000008946
    vertex 25.62286177962021 45.02464570257999 9.953625000007612
    vertex 25.62286177962021 37.785645702579984 9.953625000008998
  endloop
endfacet
facet normal -1.0 0.0 0.0
  outer loop
    vertex 25.62286177962021 45.02464570257999 9.953625000007612
    vertex 25.62286177962021 37.78564570258102 15.382875000008946
    vertex 25.62286177962021 45.024645702581026 15.382875000007562
  endloop
endfacet
facet normal 0.0 -1.0 1.91304570256397e-13
  outer loop
    vertex 32.861861779620206 37.785645702579984 9.953625000008998
    vertex 25.62286177962021 37.78564570258102 15.382875000008946
    vertex 25.62286177962021 37.785645702579984 9.953625000008998
  endloop
endfacet
facet normal 0.0 -1.0 1.91304570256397e-13
  outer loop
    vertex 25.62286177962021 37.78564570258102 15.382875000008946
    vertex 32.861861779620206 37.785645702579984 9.953625000008998
    vertex 32.861861779620206 37.78564570258102 15.382875000008946
  endloop
endfacet
facet normal 0.0 -1.91304570256397e-13 -1.0
  outer loop
    vertex 32.861861779620206 37.785645702579984 9.953625000008998
    vertex 29.24236177962021 41.405145702579986 9.953625000008305
    vertex 32.861861779620206 41.405145702579986 9.953625000008305
  endloop
endfacet
facet normal 0.0 -1.91304570256397e-13 -1.0
  outer loop
    vertex 29.24236177962021 41.405145702579986 9.953625000008305
    vertex 25.62286177962021 45.02464570257999 9.953625000007612
    vertex 29.24236177962021 45.02464570257999 9.953625000007612
  endloop
endfacet
facet normal 0.0 -1.91304570256397e-13 -1.0
  outer loop
    vertex 25.62286177962021 45.02464570257999 9.953625000007612
    vertex 29.24236177962021 41.405145702579986 9.953625000008305
    vertex 25.62286177962021 37.785645702579984 9.953625000008998
  endloop
endfacet
facet normal 0.0 -1.91304570256397e-13 -1.0
  outer loop
    vertex 25.62286177962021 37.785645702579984 9.953625000008998
    vertex 29.24236177962021 41.405145702579986 9.953625000008305
    vertex 32.861861779620206 37.785645702579984 9.953625000008998
  endloop
endfacet
facet normal 1.0 0.0 0.0
  outer loop
    vertex 65.43736177962019 84.839145702581 15.382874999999945
    vertex 65.43736177962019 70.36114570257956 7.691437500002767
    vertex 65.43736177962019 84.83914570257956 7.6914374999999975
  endloop
endfacet
facet normal 1.0 0.0 0.0
  outer loop
    vertex 65.43736177962019 70.36114570257956 7.691437500002767
    vertex 65.43736177962019 84.839145702581 15.382874999999945
    vertex 65.43736177962019 70.36114570258101 15.382875000002715
  endloop
endfacet
facet normal 0.0 1.0 -1.91304570256397e-13
  outer loop
    vertex 65.43736177962019 84.839145702581 15.382874999999945
    vertex 57.859033654620205 84.83914570257956 7.6914374999999975
    vertex 57.859033654620205 84.839145702581 15.382874999999945
  endloop
endfacet
facet normal 0.0 1.0 -1.91304570256397e-13
  outer loop
    vertex 57.859033654620205 84.83914570257956 7.6914374999999975
    vertex 65.43736177962019 84.839145702581 15.382874999999945
    vertex 65.43736177962019 84.83914570257956 7.6914374999999975
  endloop
endfacet
facet normal -1.0 0.0 0.0
  outer loop
    vertex 57.859033654620205 81.21964570257956 7.691437500000715
    vertex 57.859033654620205 84.839145702581 15.382874999999945
    vertex 57.859033654620205 84.83914570257956 7.6914374999999975
  endloop
endfacet
facet normal -1.0 0.0 0.0
  outer loop
    vertex 57.859033654620205 84.839145702581 15.382874999999945
    vertex 57.859033654620205 81.21964570257956 7.691437500000715
    vertex 57.859033654620205 81.219645702581 15.382875000000665
  endloop
endfacet
facet normal 0.0 -1.0 1.91304570256397e-13
  outer loop
    vertex 61.81786177962019 81.21964570257956 7.691437500000715
    vertex 57.859033654620205 81.219645702581 15.382875000000665
    vertex 57.859033654620205 81.21964570257956 7.691437500000715
  endloop
endfacet
facet normal 0.0 -1.0 1.91304570256397e-13
  outer loop
    vertex 57.859033654620205 81.219645702581 15.382875000000665
    vertex 61.81786177962019 81.21964570257956 7.691437500000715
    vertex 61.81786177962019 81.219645702581 15.382875000000665
  endloop
endfacet
facet normal -1.0 0.0 0.0
  outer loop
    vertex 61.81786177962019 77.600145702581 15.382875000001354
    vertex 61.81786177962019 81.21964570257956 7.691437500000715
    vertex 61.81786177962019 77.60014570257955 7.691437500001408
  endloop
endfacet
facet normal -1.0 0.0 0.0
  outer loop
    vertex 61.81786177962019 81.21964570257956 7.691437500000715
    vertex 61.81786177962019 77.600145702581 15.382875000001354
    vertex 61.81786177962019 81.219645702581 15.382875000000665
  endloop
endfacet
facet normal 0.0 1.0 -1.91304570256397e-13
  outer loop
    vertex 61.81786177962019 77.600145702581 15.382875000001354
    vertex 58.198361779620186 77.60014570257955 7.691437500001408
    vertex 58.198361779620186 77.600145702581 15.382875000001354
  endloop
endfacet
facet normal 0.0 1.0 -1.91304570256397e-13
  outer loop
    vertex 58.198361779620186 77.60014570257955 7.691437500001408
    vertex 61.81786177962019 77.600145702581 15.382875000001354
    vertex 61.81786177962019 77.60014570257955 7.691437500001408
  endloop
endfacet
facet normal -1.0 0.0 0.0
  outer loop
    vertex 58.198361779620186 73.98064570258101 15.382875000002048
    vertex 58.198361779620186 77.60014570257955 7.691437500001408
    vertex 58.198361779620186 73.98064570257955 7.691437500002075
  endloop
endfacet
facet normal -1.0 0.0 0.0
  outer loop
    vertex 58.198361779620186 77.60014570257955 7.691437500001408
    vertex 58.198361779620186 73.98064570258101 15.382875000002048
    vertex 58.198361779620186 77.600145702581 15.382875000001354
  endloop
endfacet
facet normal 0.0 1.0 -1.91304570256397e-13
  outer loop
    vertex 58.198361779620186 73.98064570258101 15.382875000002048
    vertex 54.5788617796202 73.98064570257955 7.691437500002075
    vertex 54.5788617796202 73.98064570258101 15.382875000002048
  endloop
endfacet
facet normal 0.0 1.0 -1.91304570256397e-13
  outer loop
    vertex 54.5788617796202 73.98064570257955 7.691437500002075
    vertex 58.198361779620186 73.98064570258101 15.382875000002048
    vertex 58.198361779620186 73.98064570257955 7.691437500002075
  endloop
endfacet
facet normal -1.0 0.0 0.0
  outer loop
    vertex 54.5788617796202 66.14836983808101 15.382875000003521
    vertex 54.5788617796202 70.36114570257956 7.691437500002767
    vertex 54.5788617796202 66.14836983807955 7.691437500003573
  endloop
endfacet
facet normal -1.0 0.0 0.0
  outer loop
    vertex 54.5788617796202 70.36114570257956 7.691437500002767
    vertex 54.5788617796202 66.14836983808101 15.382875000003521
    vertex 54.5788617796202 73.98064570257955 7.691437500002075
  endloop
endfacet
facet normal -1.0 0.0 0.0
  outer loop
    vertex 54.5788617796202 73.98064570257955 7.691437500002075
    vertex 54.5788617796202 66.14836983808101 15.382875000003521
    vertex 54.5788617796202 73.98064570258101 15.382875000002048
  endloop
endfacet
facet normal 0.0 1.0 -1.9226450497038182e-13
  outer loop
    vertex 54.5788617796202 66.14836983808101 15.382875000003521
    vertex 43.7203617796202 66.14836983807955 7.691437500003573
    vertex 43.7203617796202 66.14836983808101 15.382875000003521
  endloop
endfacet
facet normal 0.0 1.0 -1.9226450497038182e-13
  outer loop
    vertex 43.7203617796202 66.14836983807955 7.691437500003573
    vertex 54.5788617796202 66.14836983808101 15.382875000003521
    vertex 54.5788617796202 66.14836983807955 7.691437500003573
  endloop
endfacet
facet normal -1.0 0.0 0.0
  outer loop
    vertex 43.7203617796202 63.12214570258101 15.382875000004098
    vertex 43.7203617796202 66.14836983807955 7.691437500003573
    vertex 43.7203617796202 63.122145702579566 7.691437500004153
  endloop
endfacet
facet normal -1.0 0.0 0.0
  outer loop
    vertex 43.7203617796202 66.14836983807955 7.691437500003573
    vertex 43.7203617796202 63.12214570258101 15.382875000004098
    vertex 43.7203617796202 66.14836983808101 15.382875000003521
  endloop
endfacet
facet normal -8.813405906907707e-31 -1.91304570256397e-13 -1.0
  outer loop
    vertex 47.3398617796202 12.44914570257809 1.3848537840860554e-11
    vertex 32.861861779620206 37.78564570257808 9.001549596559353e-12
    vertex 47.3398617796202 37.78564570257808 9.001549596559353e-12
  endloop
endfacet
facet normal -8.813405906907707e-31 -1.91304570256397e-13 -1.0
  outer loop
    vertex 32.861861779620206 37.78564570257808 9.001549596559353e-12
    vertex 47.3398617796202 12.44914570257809 1.3848537840860554e-11
    vertex 32.861861779620206 30.546645702578086 1.0399262427805828e-11
  endloop
endfacet
facet normal -8.813405906907707e-31 -1.91304570256397e-13 -1.0
  outer loop
    vertex 32.861861779620206 30.546645702578086 1.0399262427805828e-11
    vertex 47.3398617796202 12.44914570257809 1.3848537840860554e-11
    vertex 29.24236177962021 26.927145702578095 1.1091689319848856e-11
  endloop
endfacet
facet normal -8.813405906907707e-31 -1.91304570256397e-13 -1.0
  outer loop
    vertex 32.861861779620206 30.546645702578086 1.0399262427805828e-11
    vertex 29.24236177962021 26.927145702578095 1.1091689319848856e-11
    vertex 18.38386177962021 30.546645702578086 1.0399262427805828e-11
  endloop
endfacet
facet normal -8.813405906907707e-31 -1.91304570256397e-13 -1.0
  outer loop
    vertex 29.24236177962021 26.927145702578095 1.1091689319848856e-11
    vertex 47.3398617796202 12.44914570257809 1.3848537840860554e-11
    vertex 40.1008617796202 17.32864794507809 1.2927925808454384e-11
  endloop
endfacet
facet normal -8.813405906907707e-31 -1.91304570256397e-13 -1.0
  outer loop
    vertex 29.24236177962021 26.927145702578095 1.1091689319848856e-11
    vertex 40.1008617796202 17.32864794507809 1.2927925808454384e-11
    vertex 29.24236177962021 23.307645702578082 1.1771257164731468e-11
  endloop
endfacet
facet normal -8.813405906907707e-31 -1.91304570256397e-13 -1.0
  outer loop
    vertex 29.24236177962021 23.307645702578082 1.1771257164731468e-11
    vertex 40.1008617796202 17.32864794507809 1.2927925808454384e-11
    vertex 12.954611779620416 23.307645702578082 1.1771257164731468e-11
  endloop
endfacet
facet normal -8.813405906907707e-31 -1.91304570256397e-13 -1.0
  outer loop
    vertex 40.1008617796202 17.32864794507809 1.2927925808454384e-11
    vertex 47.3398617796202 12.44914570257809 1.3848537840860554e-11
    vertex 40.1008617796202 13.709147945078087 1.3607493653336995e-11
  endloop
endfacet
facet normal -8.813405906907707e-31 -1.91304570256397e-13 -1.0
  outer loop
    vertex 40.1008617796202 13.709147945078087 1.3607493653336995e-11
    vertex 47.3398617796202 12.44914570257809 1.3848537840860554e-11
    vertex 36.4813617796202 13.709147945078087 1.3607493653336995e-11
  endloop
endfacet
facet normal -8.813405906907707e-31 -1.91304570256397e-13 -1.0
  outer loop
    vertex 43.7203617796202 8.829645702578087 1.456668282722442e-11
    vertex 16.574111779620416 12.44914570257809 1.3848537840860554e-11
    vertex 43.7203617796202 12.44914570257809 1.3848537840860554e-11
  endloop
endfacet
facet normal -8.813405906907707e-31 -1.91304570256397e-13 -1.0
  outer loop
    vertex 16.574111779620416 12.44914570257809 1.3848537840860554e-11
    vertex 43.7203617796202 8.829645702578087 1.456668282722442e-11
    vertex 16.574111779620416 8.829645702578087 1.456668282722442e-11
  endloop
endfacet
facet normal -8.813405906907707e-31 -1.91304570256397e-13 -1.0
  outer loop
    vertex 12.954611779620416 23.307645702578082 1.1771257164731468e-11
    vertex 36.4813617796202 17.32864794507809 1.2927925808454384e-11
    vertex 12.954611779620416 12.44914570257809 1.3848537840860554e-11
  endloop
endfacet
facet normal -8.813405906907707e-31 -1.91304570256397e-13 -1.0
  outer loop
    vertex 36.4813617796202 17.32864794507809 1.2927925808454384e-11
    vertex 12.954611779620416 23.307645702578082 1.1771257164731468e-11
    vertex 40.1008617796202 17.32864794507809 1.2927925808454384e-11
  endloop
endfacet
facet normal -8.813405906907707e-31 -1.91304570256397e-13 -1.0
  outer loop
    vertex 12.954611779620416 12.44914570257809 1.3848537840860554e-11
    vertex 36.4813617796202 17.32864794507809 1.2927925808454384e-11
    vertex 36.4813617796202 13.709147945078087 1.3607493653336995e-11
  endloop
endfacet
facet normal -8.813405906907707e-31 -1.91304570256397e-13 -1.0
  outer loop
    vertex 12.954611779620416 12.44914570257809 1.3848537840860554e-11
    vertex 36.4813617796202 13.709147945078087 1.3607493653336995e-11
    vertex 47.3398617796202 12.44914570257809 1.3848537840860554e-11
  endloop
endfacet
facet normal -8.813405906907707e-31 -1.91304570256397e-13 -1.0
  outer loop
    vertex 12.954611779620416 12.44914570257809 1.3848537840860554e-11
    vertex 47.3398617796202 12.44914570257809 1.3848537840860554e-11
    vertex 43.7203617796202 12.44914570257809 1.3848537840860554e-11
  endloop
endfacet
facet normal -8.813405906907707e-31 -1.91304570256397e-13 -1.0
  outer loop
    vertex 12.954611779620416 12.44914570257809 1.3848537840860554e-11
    vertex 43.7203617796202 12.44914570257809 1.3848537840860554e-11
    vertex 16.574111779620416 12.44914570257809 1.3848537840860554e-11
  endloop
endfacet
facet normal -8.813405906907707e-31 -1.91304570256397e-13 -1.0
  outer loop
    vertex 39.7615336546202 81.21964570257806 7.181449863638446e-13
    vertex 39.7615336546202 84.83914570257807 -2.102563323248851e-26
    vertex 43.7203617796202 81.21964570257806 7.181449863638446e-13
  endloop
endfacet
facet normal -8.813405906907707e-31 -1.91304570256397e-13 -1.0
  outer loop
    vertex 50.959361779620195 70.36114570257807 2.769707568172094e-12
    vertex 47.3398617796202 73.98064570257807 2.090139723289483e-12
    vertex 50.959361779620195 73.98064570257807 2.090139723289483e-12
  endloop
endfacet
facet normal -8.813405906907707e-31 -1.91304570256397e-13 -1.0
  outer loop
    vertex 69.05686177962019 66.14836983807807 3.5756308445167864e-12
    vertex 50.959361779620195 70.36114570257807 2.769707568172094e-12
    vertex 69.05686177962019 70.36114570257807 2.769707568172094e-12
  endloop
endfacet
facet normal -8.813405906907707e-31 -1.91304570256397e-13 -1.0
  outer loop
    vertex 79.91536177962018 55.308521121578124 5.649343444871165e-12
    vertex 76.29586177962018 58.60617156207809 5.031346891655922e-12
    vertex 79.91536177962018 58.60617156207809 5.031346891655922e-12
  endloop
endfacet
facet normal -8.813405906907707e-31 -1.91304570256397e-13 -1.0
  outer loop
    vertex 83.53486177962019 39.59539570257808 8.655336150537839e-12
    vertex 79.91536177962018 55.308521121578124 5.649343444871165e-12
    vertex 83.53486177962019 55.308521121578124 5.649343444871165e-12
  endloop
endfacet
facet normal -8.813405906907707e-31 -1.91304570256397e-13 -1.0
  outer loop
    vertex 79.91536177962018 55.308521121578124 5.649343444871165e-12
    vertex 83.53486177962019 39.59539570257808 8.655336150537839e-12
    vertex 79.91536177962018 45.024645702578084 7.629554859633714e-12
  endloop
endfacet
facet normal -8.813405906907707e-31 -1.91304570256397e-13 -1.0
  outer loop
    vertex 79.91536177962018 55.308521121578124 5.649343444871165e-12
    vertex 79.91536177962018 45.024645702578084 7.629554859633714e-12
    vertex 72.6763617796202 52.263645702578074 6.257560122708075e-12
  endloop
endfacet
facet normal -8.813405906907707e-31 -1.91304570256397e-13 -1.0
  outer loop
    vertex 72.6763617796202 52.263645702578074 6.257560122708075e-12
    vertex 79.91536177962018 45.024645702578084 7.629554859633714e-12
    vertex 76.29586177962018 48.64414570257808 6.937127967590685e-12
  endloop
endfacet
facet normal -8.813405906907707e-31 -1.91304570256397e-13 -1.0
  outer loop
    vertex 79.91536177962018 45.024645702578084 7.629554859633714e-12
    vertex 83.53486177962019 39.59539570257808 8.655336150537839e-12
    vertex 79.91536177962018 39.59539570257808 8.655336150537839e-12
  endloop
endfacet
facet normal -8.813405906907707e-31 -1.91304570256397e-13 -1.0
  outer loop
    vertex 18.38386177962021 26.927145702578095 1.1091689319848856e-11
    vertex 18.38386177962021 30.546645702578086 1.0399262427805828e-11
    vertex 29.24236177962021 26.927145702578095 1.1091689319848856e-11
  endloop
endfacet
facet normal -8.813405906907707e-31 -1.91304570256397e-13 -1.0
  outer loop
    vertex 76.29586177962018 45.024645702578084 7.629554859633714e-12
    vertex 76.29586177962018 48.64414570257808 6.937127967590685e-12
    vertex 79.91536177962018 45.024645702578084 7.629554859633714e-12
  endloop
endfacet
facet normal -8.813405906907707e-31 -1.91304570256397e-13 -1.0
  outer loop
    vertex 72.6763617796202 48.64414570257808 6.937127967590685e-12
    vertex 72.6763617796202 52.263645702578074 6.257560122708075e-12
    vertex 76.29586177962018 48.64414570257808 6.937127967590685e-12
  endloop
endfacet
facet normal -8.813405906907707e-31 -1.91304570256397e-13 -1.0
  outer loop
    vertex 76.29586177962018 58.60617156207809 5.031346891655922e-12
    vertex 72.6763617796202 62.31457734057807 4.309052870703225e-12
    vertex 76.29586177962018 62.31457734057807 4.309052870703225e-12
  endloop
endfacet
facet normal -8.813405906907707e-31 -1.91304570256397e-13 -1.0
  outer loop
    vertex 72.6763617796202 62.31457734057807 4.309052870703225e-12
    vertex 76.29586177962018 58.60617156207809 5.031346891655922e-12
    vertex 40.1008617796202 59.50264570257808 4.84698824430118e-12
  endloop
endfacet
facet normal -8.813405906907707e-31 -1.91304570256397e-13 -1.0
  outer loop
    vertex 40.1008617796202 59.50264570257808 4.84698824430118e-12
    vertex 76.29586177962018 58.60617156207809 5.031346891655922e-12
    vertex 36.4813617796202 59.50264570257808 4.84698824430118e-12
  endloop
endfacet
facet normal -8.813405906907707e-31 -1.91304570256397e-13 -1.0
  outer loop
    vertex 36.4813617796202 59.50264570257808 4.84698824430118e-12
    vertex 76.29586177962018 58.60617156207809 5.031346891655922e-12
    vertex 36.4813617796202 52.263645702578074 6.257560122708075e-12
  endloop
endfacet
facet normal -8.813405906907707e-31 -1.91304570256397e-13 -1.0
  outer loop
    vertex 36.4813617796202 52.263645702578074 6.257560122708075e-12
    vertex 76.29586177962018 58.60617156207809 5.031346891655922e-12
    vertex 79.91536177962018 55.308521121578124 5.649343444871165e-12
  endloop
endfacet
facet normal -8.813405906907707e-31 -1.91304570256397e-13 -1.0
  outer loop
    vertex 36.4813617796202 52.263645702578074 6.257560122708075e-12
    vertex 79.91536177962018 55.308521121578124 5.649343444871165e-12
    vertex 72.6763617796202 52.263645702578074 6.257560122708075e-12
  endloop
endfacet
facet normal -8.813405906907707e-31 -1.91304570256397e-13 -1.0
  outer loop
    vertex 36.4813617796202 52.263645702578074 6.257560122708075e-12
    vertex 72.6763617796202 52.263645702578074 6.257560122708075e-12
    vertex 65.43736177962019 52.263645702578074 6.257560122708075e-12
  endloop
endfacet
facet normal -8.813405906907707e-31 -1.91304570256397e-13 -1.0
  outer loop
    vertex 36.4813617796202 52.263645702578074 6.257560122708075e-12
    vertex 65.43736177962019 52.263645702578074 6.257560122708075e-12
    vertex 65.43736177962019 48.64414570257808 6.937127967590685e-12
  endloop
endfacet
facet normal -8.813405906907707e-31 -1.91304570256397e-13 -1.0
  outer loop
    vertex 36.4813617796202 52.263645702578074 6.257560122708075e-12
    vertex 65.43736177962019 48.64414570257808 6.937127967590685e-12
    vertex 32.861861779620206 52.263645702578074 6.257560122708075e-12
  endloop
endfacet
facet normal -8.813405906907707e-31 -1.91304570256397e-13 -1.0
  outer loop
    vertex 32.861861779620206 52.263645702578074 6.257560122708075e-12
    vertex 65.43736177962019 48.64414570257808 6.937127967590685e-12
    vertex 61.81786177962019 48.64414570257808 6.937127967590685e-12
  endloop
endfacet
facet normal -8.813405906907707e-31 -1.91304570256397e-13 -1.0
  outer loop
    vertex 32.861861779620206 52.263645702578074 6.257560122708075e-12
    vertex 61.81786177962019 48.64414570257808 6.937127967590685e-12
    vertex 32.861861779620206 41.40514570257808 8.309122704516325e-12
  endloop
endfacet
facet normal -8.813405906907707e-31 -1.91304570256397e-13 -1.0
  outer loop
    vertex 32.861861779620206 41.40514570257808 8.309122704516325e-12
    vertex 61.81786177962019 48.64414570257808 6.937127967590685e-12
    vertex 58.198361779620186 45.024645702578084 7.629554859633714e-12
  endloop
endfacet
facet normal -8.813405906907707e-31 -1.91304570256397e-13 -1.0
  outer loop
    vertex 58.198361779620186 45.024645702578084 7.629554859633714e-12
    vertex 61.81786177962019 48.64414570257808 6.937127967590685e-12
    vertex 61.81786177962019 45.024645702578084 7.629554859633714e-12
  endloop
endfacet
facet normal -8.813405906907707e-31 -1.91304570256397e-13 -1.0
  outer loop
    vertex 32.861861779620206 41.40514570257808 8.309122704516325e-12
    vertex 58.198361779620186 45.024645702578084 7.629554859633714e-12
    vertex 58.198361779620186 41.40514570257808 8.309122704516325e-12
  endloop
endfacet
facet normal -8.813405906907707e-31 -1.91304570256397e-13 -1.0
  outer loop
    vertex 32.861861779620206 41.40514570257808 8.309122704516325e-12
    vertex 58.198361779620186 41.40514570257808 8.309122704516325e-12
    vertex 50.959361779620195 41.40514570257808 8.309122704516325e-12
  endloop
endfacet
facet normal -8.813405906907707e-31 -1.91304570256397e-13 -1.0
  outer loop
    vertex 32.861861779620206 41.40514570257808 8.309122704516325e-12
    vertex 50.959361779620195 41.40514570257808 8.309122704516325e-12
    vertex 50.959361779620195 37.78564570257808 9.001549596559353e-12
  endloop
endfacet
facet normal -8.813405906907707e-31 -1.91304570256397e-13 -1.0
  outer loop
    vertex 32.861861779620206 41.40514570257808 8.309122704516325e-12
    vertex 50.959361779620195 37.78564570257808 9.001549596559353e-12
    vertex 29.24236177962021 41.40514570257808 8.309122704516325e-12
  endloop
endfacet
facet normal -8.813405906907707e-31 -1.91304570256397e-13 -1.0
  outer loop
    vertex 29.24236177962021 41.40514570257808 8.309122704516325e-12
    vertex 25.62286177962021 45.024645702578084 7.629554859633714e-12
    vertex 29.24236177962021 45.024645702578084 7.629554859633714e-12
  endloop
endfacet
facet normal -8.813405906907707e-31 -1.91304570256397e-13 -1.0
  outer loop
    vertex 25.62286177962021 45.024645702578084 7.629554859633714e-12
    vertex 29.24236177962021 41.40514570257808 8.309122704516325e-12
    vertex 25.62286177962021 37.78564570257808 9.001549596559353e-12
  endloop
endfacet
facet normal -8.813405906907707e-31 -1.91304570256397e-13 -1.0
  outer loop
    vertex 25.62286177962021 37.78564570257808 9.001549596559353e-12
    vertex 29.24236177962021 41.40514570257808 8.309122704516325e-12
    vertex 50.959361779620195 37.78564570257808 9.001549596559353e-12
  endloop
endfacet
facet normal -8.813405906907707e-31 -1.91304570256397e-13 -1.0
  outer loop
    vertex 25.62286177962021 37.78564570257808 9.001549596559353e-12
    vertex 50.959361779620195 37.78564570257808 9.001549596559353e-12
    vertex 47.3398617796202 37.78564570257808 9.001549596559353e-12
  endloop
endfacet
facet normal -8.813405906907707e-31 -1.91304570256397e-13 -1.0
  outer loop
    vertex 25.62286177962021 37.78564570257808 9.001549596559353e-12
    vertex 47.3398617796202 37.78564570257808 9.001549596559353e-12
    vertex 32.861861779620206 37.78564570257808 9.001549596559353e-12
  endloop
endfacet
facet normal -8.813405906907707e-31 -1.91304570256397e-13 -1.0
  outer loop
    vertex 72.6763617796202 62.31457734057807 4.309052870703225e-12
    vertex 69.05686177962019 66.14836983807807 3.5756308445167864e-12
    vertex 72.6763617796202 66.14836983807807 3.5756308445167864e-12
  endloop
endfacet
facet normal -8.813405906907707e-31 -1.91304570256397e-13 -1.0
  outer loop
    vertex 69.05686177962019 66.14836983807807 3.5756308445167864e-12
    vertex 72.6763617796202 62.31457734057807 4.309052870703225e-12
    vertex 43.7203617796202 63.12214570257808 4.154561352258151e-12
  endloop
endfacet
facet normal -8.813405906907707e-31 -1.91304570256397e-13 -1.0
  outer loop
    vertex 43.7203617796202 63.12214570257808 4.154561352258151e-12
    vertex 72.6763617796202 62.31457734057807 4.309052870703225e-12
    vertex 40.1008617796202 63.12214570257808 4.154561352258151e-12
  endloop
endfacet
facet normal -8.813405906907707e-31 -1.91304570256397e-13 -1.0
  outer loop
    vertex 40.1008617796202 63.12214570257808 4.154561352258151e-12
    vertex 72.6763617796202 62.31457734057807 4.309052870703225e-12
    vertex 40.1008617796202 59.50264570257808 4.84698824430118e-12
  endloop
endfacet
facet normal -8.813405906907707e-31 -1.91304570256397e-13 -1.0
  outer loop
    vertex 47.3398617796202 84.83914570257807 -2.102563323248851e-26
    vertex 43.7203617796202 81.21964570257806 7.181449863638446e-13
    vertex 39.7615336546202 84.83914570257807 -2.102563323248851e-26
  endloop
endfacet
facet normal -8.813405906907707e-31 -1.91304570256397e-13 -1.0
  outer loop
    vertex 43.7203617796202 81.21964570257806 7.181449863638446e-13
    vertex 47.3398617796202 84.83914570257807 -2.102563323248851e-26
    vertex 47.3398617796202 73.98064570257807 2.090139723289483e-12
  endloop
endfacet
facet normal -8.813405906907707e-31 -1.91304570256397e-13 -1.0
  outer loop
    vertex 43.7203617796202 81.21964570257806 7.181449863638446e-13
    vertex 47.3398617796202 73.98064570257807 2.090139723289483e-12
    vertex 43.7203617796202 63.12214570257808 4.154561352258151e-12
  endloop
endfacet
facet normal -8.813405906907707e-31 -1.91304570256397e-13 -1.0
  outer loop
    vertex 43.7203617796202 63.12214570257808 4.154561352258151e-12
    vertex 47.3398617796202 73.98064570257807 2.090139723289483e-12
    vertex 50.959361779620195 70.36114570257807 2.769707568172094e-12
  endloop
endfacet
facet normal -8.813405906907707e-31 -1.91304570256397e-13 -1.0
  outer loop
    vertex 43.7203617796202 63.12214570257808 4.154561352258151e-12
    vertex 50.959361779620195 70.36114570257807 2.769707568172094e-12
    vertex 69.05686177962019 66.14836983807807 3.5756308445167864e-12
  endloop
endfacet
facet normal 0.0 -1.0 1.91304570256397e-13
  outer loop
    vertex 43.7203617796202 81.21964570257806 7.181449863638446e-13
    vertex 39.7615336546202 81.21964570257956 7.691437500000715
    vertex 39.7615336546202 81.21964570257806 7.181449863638446e-13
  endloop
endfacet
facet normal 0.0 -1.0 1.91304570256397e-13
  outer loop
    vertex 39.7615336546202 81.21964570257956 7.691437500000715
    vertex 43.7203617796202 81.21964570257806 7.181449863638446e-13
    vertex 43.7203617796202 81.21964570257956 7.691437500000715
  endloop
endfacet
facet normal -1.0 0.0 0.0
  outer loop
    vertex 43.7203617796202 63.122145702579566 7.691437500004153
    vertex 43.7203617796202 81.21964570257806 7.181449863638446e-13
    vertex 43.7203617796202 63.12214570257808 4.154561352258151e-12
  endloop
endfacet
facet normal -1.0 0.0 0.0
  outer loop
    vertex 43.7203617796202 81.21964570257806 7.181449863638446e-13
    vertex 43.7203617796202 63.122145702579566 7.691437500004153
    vertex 43.7203617796202 66.14836983807955 7.691437500003573
  endloop
endfacet
facet normal -1.0 0.0 0.0
  outer loop
    vertex 43.7203617796202 81.21964570257806 7.181449863638446e-13
    vertex 43.7203617796202 66.14836983807955 7.691437500003573
    vertex 43.7203617796202 81.21964570257956 7.691437500000715
  endloop
endfacet
facet normal -1.2886230772169153e-41 1.0 -1.9142857234007526e-13
  outer loop
    vertex 43.7203617796202 63.12214570258101 15.382875000004098
    vertex 40.1008617796202 63.12214570257808 4.154561352258151e-12
    vertex 40.1008617796202 63.12214570258101 15.382875000004098
  endloop
endfacet
facet normal -1.2886230772169153e-41 1.0 -1.9142857234007526e-13
  outer loop
    vertex 40.1008617796202 63.12214570257808 4.154561352258151e-12
    vertex 43.7203617796202 63.12214570258101 15.382875000004098
    vertex 43.7203617796202 63.12214570257808 4.154561352258151e-12
  endloop
endfacet
facet normal -1.2886230772169153e-41 1.0 -1.9142857234007526e-13
  outer loop
    vertex 43.7203617796202 63.12214570257808 4.154561352258151e-12
    vertex 43.7203617796202 63.12214570258101 15.382875000004098
    vertex 43.7203617796202 63.122145702579566 7.691437500004153
  endloop
endfacet
facet normal -1.0 0.0 0.0
  outer loop
    vertex 40.1008617796202 59.50264570258102 15.382875000004793
    vertex 40.1008617796202 63.12214570257808 4.154561352258151e-12
    vertex 40.1008617796202 59.50264570257808 4.84698824430118e-12
  endloop
endfacet
facet normal -1.0 0.0 0.0
  outer loop
    vertex 40.1008617796202 63.12214570257808 4.154561352258151e-12
    vertex 40.1008617796202 59.50264570258102 15.382875000004793
    vertex 40.1008617796202 63.12214570258101 15.382875000004098
  endloop
endfacet
facet normal 6.443115386084577e-42 1.0 -1.9142857234007526e-13
  outer loop
    vertex 40.1008617796202 59.50264570258102 15.382875000004793
    vertex 36.4813617796202 59.50264570257808 4.84698824430118e-12
    vertex 36.4813617796202 59.50264570258102 15.382875000004793
  endloop
endfacet
facet normal 6.443115386084577e-42 1.0 -1.9142857234007526e-13
  outer loop
    vertex 36.4813617796202 59.50264570257808 4.84698824430118e-12
    vertex 40.1008617796202 59.50264570258102 15.382875000004793
    vertex 40.1008617796202 59.50264570257808 4.84698824430118e-12
  endloop
endfacet
facet normal -1.0 0.0 0.0
  outer loop
    vertex 36.4813617796202 52.263645702578074 6.257560122708075e-12
    vertex 36.4813617796202 59.50264570258102 15.382875000004793
    vertex 36.4813617796202 59.50264570257808 4.84698824430118e-12
  endloop
endfacet
facet normal -1.0 0.0 0.0
  outer loop
    vertex 36.4813617796202 59.50264570258102 15.382875000004793
    vertex 36.4813617796202 52.263645702578074 6.257560122708075e-12
    vertex 36.4813617796202 52.263645702581016 15.382875000006202
  endloop
endfacet
facet normal 6.443115386084577e-42 1.0 -1.9142857234007526e-13
  outer loop
    vertex 36.4813617796202 52.263645702581016 15.382875000006202
    vertex 32.861861779620206 52.263645702578074 6.257560122708075e-12
    vertex 32.861861779620206 52.263645702581016 15.382875000006202
  endloop
endfacet
facet normal 6.443115386084577e-42 1.0 -1.9142857234007526e-13
  outer loop
    vertex 32.861861779620206 52.263645702578074 6.257560122708075e-12
    vertex 36.4813617796202 52.263645702581016 15.382875000006202
    vertex 36.4813617796202 52.263645702578074 6.257560122708075e-12
  endloop
endfacet
facet normal 0.0 1.0 -1.91304570256397e-13
  outer loop
    vertex 32.861861779620206 41.40514570257912 5.429250000008307
    vertex 29.24236177962021 41.40514570257808 8.309122704516325e-12
    vertex 29.24236177962021 41.40514570257912 5.429250000008307
  endloop
endfacet
facet normal 0.0 1.0 -1.91304570256397e-13
  outer loop
    vertex 29.24236177962021 41.40514570257808 8.309122704516325e-12
    vertex 32.861861779620206 41.40514570257912 5.429250000008307
    vertex 32.861861779620206 41.40514570257808 8.309122704516325e-12
  endloop
endfacet
facet normal 1.0 0.0 0.0
  outer loop
    vertex 29.24236177962021 45.024645702578084 7.629554859633714e-12
    vertex 29.24236177962021 41.40514570257912 5.429250000008307
    vertex 29.24236177962021 41.40514570257808 8.309122704516325e-12
  endloop
endfacet
facet normal 1.0 0.0 0.0
  outer loop
    vertex 29.24236177962021 41.40514570257912 5.429250000008307
    vertex 29.24236177962021 45.024645702578084 7.629554859633714e-12
    vertex 29.24236177962021 45.02464570257912 5.429250000007627
  endloop
endfacet
facet normal 0.0 1.0 -1.91304570256397e-13
  outer loop
    vertex 29.24236177962021 45.02464570257912 5.429250000007627
    vertex 25.62286177962021 45.024645702578084 7.629554859633714e-12
    vertex 25.62286177962021 45.02464570257912 5.429250000007627
  endloop
endfacet
facet normal 0.0 1.0 -1.91304570256397e-13
  outer loop
    vertex 25.62286177962021 45.024645702578084 7.629554859633714e-12
    vertex 29.24236177962021 45.02464570257912 5.429250000007627
    vertex 29.24236177962021 45.024645702578084 7.629554859633714e-12
  endloop
endfacet
facet normal -1.0 0.0 0.0
  outer loop
    vertex 25.62286177962021 37.78564570257912 5.429250000009
    vertex 25.62286177962021 45.024645702578084 7.629554859633714e-12
    vertex 25.62286177962021 37.78564570257808 9.001549596559353e-12
  endloop
endfacet
facet normal -1.0 0.0 0.0
  outer loop
    vertex 25.62286177962021 45.024645702578084 7.629554859633714e-12
    vertex 25.62286177962021 37.78564570257912 5.429250000009
    vertex 25.62286177962021 45.02464570257912 5.429250000007627
  endloop
endfacet
facet normal 0.0 -1.0 1.91304570256397e-13
  outer loop
    vertex 32.861861779620206 37.78564570257808 9.001549596559353e-12
    vertex 25.62286177962021 37.78564570257912 5.429250000009
    vertex 25.62286177962021 37.78564570257808 9.001549596559353e-12
  endloop
endfacet
facet normal 0.0 -1.0 1.91304570256397e-13
  outer loop
    vertex 25.62286177962021 37.78564570257912 5.429250000009
    vertex 32.861861779620206 37.78564570257808 9.001549596559353e-12
    vertex 32.861861779620206 37.78564570257912 5.429250000009
  endloop
endfacet
facet normal -7.362701782063178e-30 1.0 -1.9101060602492211e-13
  outer loop
    vertex 32.861861779620206 30.54664570258103 15.382875000010356
    vertex 18.38386177962021 30.546645702578086 1.0399262427805828e-11
    vertex 18.38386177962021 30.54664570258103 15.382875000010356
  endloop
endfacet
facet normal -7.362701782063178e-30 1.0 -1.9101060602492211e-13
  outer loop
    vertex 18.38386177962021 30.546645702578086 1.0399262427805828e-11
    vertex 32.861861779620206 30.54664570258103 15.382875000010356
    vertex 32.861861779620206 30.546645702578086 1.0399262427805828e-11
  endloop
endfacet
facet normal -1.0 0.0 0.0
  outer loop
    vertex 18.38386177962021 26.92714570258103 15.38287500001105
    vertex 18.38386177962021 30.546645702578086 1.0399262427805828e-11
    vertex 18.38386177962021 26.927145702578095 1.1091689319848856e-11
  endloop
endfacet
facet normal -1.0 0.0 0.0
  outer loop
    vertex 18.38386177962021 30.546645702578086 1.0399262427805828e-11
    vertex 18.38386177962021 26.92714570258103 15.38287500001105
    vertex 18.38386177962021 30.54664570258103 15.382875000010356
  endloop
endfacet
facet normal 1.1219355096475897e-29 -1.0 1.910106060249221e-13
  outer loop
    vertex 29.24236177962021 26.927145702578095 1.1091689319848856e-11
    vertex 18.38386177962021 26.92714570258103 15.38287500001105
    vertex 18.38386177962021 26.927145702578095 1.1091689319848856e-11
  endloop
endfacet
facet normal 1.1219355096475897e-29 -1.0 1.910106060249221e-13
  outer loop
    vertex 18.38386177962021 26.92714570258103 15.38287500001105
    vertex 29.24236177962021 26.927145702578095 1.1091689319848856e-11
    vertex 29.24236177962021 26.92714570258103 15.38287500001105
  endloop
endfacet
facet normal -1.0 0.0 0.0
  outer loop
    vertex 29.24236177962021 23.307645702581027 15.382875000011715
    vertex 29.24236177962021 26.927145702578095 1.1091689319848856e-11
    vertex 29.24236177962021 23.307645702578082 1.1771257164731468e-11
  endloop
endfacet
facet normal -1.0 0.0 0.0
  outer loop
    vertex 29.24236177962021 26.927145702578095 1.1091689319848856e-11
    vertex 29.24236177962021 23.307645702581027 15.382875000011715
    vertex 29.24236177962021 26.92714570258103 15.38287500001105
  endloop
endfacet
facet normal -8.310633404804063e-31 1.0 -1.914285723400752e-13
  outer loop
    vertex 29.24236177962021 23.307645702581027 15.382875000011715
    vertex 12.954611779620416 23.307645702578082 1.1771257164731468e-11
    vertex 12.954611779620416 23.307645702581027 15.382875000011715
  endloop
endfacet
facet normal -8.310633404804063e-31 1.0 -1.914285723400752e-13
  outer loop
    vertex 12.954611779620416 23.307645702578082 1.1771257164731468e-11
    vertex 29.24236177962021 23.307645702581027 15.382875000011715
    vertex 29.24236177962021 23.307645702578082 1.1771257164731468e-11
  endloop
endfacet
facet normal -1.0 0.0 0.0
  outer loop
    vertex 12.954611779620416 12.449145702581033 15.382875000013794
    vertex 12.954611779620416 23.307645702578082 1.1771257164731468e-11
    vertex 12.954611779620416 12.44914570257809 1.3848537840860554e-11
  endloop
endfacet
facet normal -1.0 0.0 0.0
  outer loop
    vertex 12.954611779620416 23.307645702578082 1.1771257164731468e-11
    vertex 12.954611779620416 12.449145702581033 15.382875000013794
    vertex 12.954611779620416 23.307645702581027 15.382875000011715
  endloop
endfacet
facet normal 1.2886230772169153e-41 -1.0 1.9142857234007526e-13
  outer loop
    vertex 16.574111779620416 12.44914570257809 1.3848537840860554e-11
    vertex 12.954611779620416 12.449145702581033 15.382875000013794
    vertex 12.954611779620416 12.44914570257809 1.3848537840860554e-11
  endloop
endfacet
facet normal 1.2886230772169153e-41 -1.0 1.9142857234007526e-13
  outer loop
    vertex 12.954611779620416 12.449145702581033 15.382875000013794
    vertex 16.574111779620416 12.44914570257809 1.3848537840860554e-11
    vertex 16.574111779620416 12.449145702581033 15.382875000013794
  endloop
endfacet
facet normal -1.0 0.0 0.0
  outer loop
    vertex 16.574111779620416 8.829645702578087 1.456668282722442e-11
    vertex 16.574111779620416 12.449145702581033 15.382875000013794
    vertex 16.574111779620416 12.44914570257809 1.3848537840860554e-11
  endloop
endfacet
facet normal -1.0 0.0 0.0
  outer loop
    vertex 16.574111779620416 12.449145702581033 15.382875000013794
    vertex 16.574111779620416 8.829645702578087 1.456668282722442e-11
    vertex 16.574111779620416 8.829645702581033 15.38287500001451
  endloop
endfacet
facet normal 1.7950968154365148e-30 -1.0 1.9142857234007526e-13
  outer loop
    vertex 43.7203617796202 8.829645702578087 1.456668282722442e-11
    vertex 16.574111779620416 8.829645702581033 15.38287500001451
    vertex 16.574111779620416 8.829645702578087 1.456668282722442e-11
  endloop
endfacet
facet normal 1.7950968154365148e-30 -1.0 1.9142857234007526e-13
  outer loop
    vertex 16.574111779620416 8.829645702581033 15.38287500001451
    vertex 43.7203617796202 8.829645702578087 1.456668282722442e-11
    vertex 43.7203617796202 8.829645702581033 15.38287500001451
  endloop
endfacet
facet normal 1.0 0.0 0.0
  outer loop
    vertex 43.7203617796202 12.449145702581033 15.382875000013794
    vertex 43.7203617796202 8.829645702578087 1.456668282722442e-11
    vertex 43.7203617796202 12.44914570257809 1.3848537840860554e-11
  endloop
endfacet
facet normal 1.0 0.0 0.0
  outer loop
    vertex 43.7203617796202 8.829645702578087 1.456668282722442e-11
    vertex 43.7203617796202 12.449145702581033 15.382875000013794
    vertex 43.7203617796202 8.829645702581033 15.38287500001451
  endloop
endfacet
facet normal 1.2886230772169153e-41 -1.0 1.9142857234007526e-13
  outer loop
    vertex 47.3398617796202 12.44914570257809 1.3848537840860554e-11
    vertex 43.7203617796202 12.449145702581033 15.382875000013794
    vertex 43.7203617796202 12.44914570257809 1.3848537840860554e-11
  endloop
endfacet
facet normal 1.2886230772169153e-41 -1.0 1.9142857234007526e-13
  outer loop
    vertex 43.7203617796202 12.449145702581033 15.382875000013794
    vertex 47.3398617796202 12.44914570257809 1.3848537840860554e-11
    vertex 47.3398617796202 12.449145702581033 15.382875000013794
  endloop
endfacet
facet normal 1.0 0.0 0.0
  outer loop
    vertex 47.3398617796202 37.78564570258102 15.382875000008946
    vertex 47.3398617796202 12.44914570257809 1.3848537840860554e-11
    vertex 47.3398617796202 37.78564570257808 9.001549596559353e-12
  endloop
endfacet
facet normal 1.0 0.0 0.0
  outer loop
    vertex 47.3398617796202 12.44914570257809 1.3848537840860554e-11
    vertex 47.3398617796202 37.78564570258102 15.382875000008946
    vertex 47.3398617796202 12.449145702581033 15.382875000013794
  endloop
endfacet
facet normal 1.2886230772169153e-41 -1.0 1.9142857234007526e-13
  outer loop
    vertex 50.959361779620195 37.78564570257808 9.001549596559353e-12
    vertex 47.3398617796202 37.78564570258102 15.382875000008946
    vertex 47.3398617796202 37.78564570257808 9.001549596559353e-12
  endloop
endfacet
facet normal 1.2886230772169153e-41 -1.0 1.9142857234007526e-13
  outer loop
    vertex 47.3398617796202 37.78564570258102 15.382875000008946
    vertex 50.959361779620195 37.78564570257808 9.001549596559353e-12
    vertex 50.959361779620195 37.78564570258102 15.382875000008946
  endloop
endfacet
facet normal 1.0 0.0 0.0
  outer loop
    vertex 50.959361779620195 41.405145702581024 15.382875000008255
    vertex 50.959361779620195 37.78564570257808 9.001549596559353e-12
    vertex 50.959361779620195 41.40514570257808 8.309122704516325e-12
  endloop
endfacet
facet normal 1.0 0.0 0.0
  outer loop
    vertex 50.959361779620195 37.78564570257808 9.001549596559353e-12
    vertex 50.959361779620195 41.405145702581024 15.382875000008255
    vertex 50.959361779620195 37.78564570258102 15.382875000008946
  endloop
endfacet
facet normal 8.414516322355849e-30 -1.0 1.9142857234007526e-13
  outer loop
    vertex 58.198361779620186 41.40514570257808 8.309122704516325e-12
    vertex 50.959361779620195 41.405145702581024 15.382875000008255
    vertex 50.959361779620195 41.40514570257808 8.309122704516325e-12
  endloop
endfacet
facet normal 8.414516322355849e-30 -1.0 1.9142857234007526e-13
  outer loop
    vertex 50.959361779620195 41.405145702581024 15.382875000008255
    vertex 58.198361779620186 41.40514570257808 8.309122704516325e-12
    vertex 58.198361779620186 41.405145702581024 15.382875000008255
  endloop
endfacet
facet normal 1.0 0.0 0.0
  outer loop
    vertex 58.198361779620186 45.024645702578084 7.629554859633714e-12
    vertex 58.198361779620186 41.405145702581024 15.382875000008255
    vertex 58.198361779620186 41.40514570257808 8.309122704516325e-12
  endloop
endfacet
facet normal 1.0 0.0 0.0
  outer loop
    vertex 58.198361779620186 41.405145702581024 15.382875000008255
    vertex 58.198361779620186 45.024645702578084 7.629554859633714e-12
    vertex 58.198361779620186 45.024645702581026 15.382875000007562
  endloop
endfacet
facet normal 0.0 -1.0 1.9142857234007536e-13
  outer loop
    vertex 61.81786177962019 45.024645702578084 7.629554859633714e-12
    vertex 58.198361779620186 45.024645702581026 15.382875000007562
    vertex 58.198361779620186 45.024645702578084 7.629554859633714e-12
  endloop
endfacet
facet normal 0.0 -1.0 1.9142857234007536e-13
  outer loop
    vertex 58.198361779620186 45.024645702581026 15.382875000007562
    vertex 61.81786177962019 45.024645702578084 7.629554859633714e-12
    vertex 61.81786177962019 45.024645702581026 15.382875000007562
  endloop
endfacet
facet normal 1.0 0.0 0.0
  outer loop
    vertex 61.81786177962019 48.64414570258102 15.382875000006878
    vertex 61.81786177962019 45.024645702578084 7.629554859633714e-12
    vertex 61.81786177962019 48.64414570257808 6.937127967590685e-12
  endloop
endfacet
facet normal 1.0 0.0 0.0
  outer loop
    vertex 61.81786177962019 45.024645702578084 7.629554859633714e-12
    vertex 61.81786177962019 48.64414570258102 15.382875000006878
    vertex 61.81786177962019 45.024645702581026 15.382875000007562
  endloop
endfacet
facet normal 1.2886230772169153e-41 -1.0 1.9142857234007526e-13
  outer loop
    vertex 65.43736177962019 48.64414570257808 6.937127967590685e-12
    vertex 61.81786177962019 48.64414570258102 15.382875000006878
    vertex 61.81786177962019 48.64414570257808 6.937127967590685e-12
  endloop
endfacet
facet normal 1.2886230772169153e-41 -1.0 1.9142857234007526e-13
  outer loop
    vertex 61.81786177962019 48.64414570258102 15.382875000006878
    vertex 65.43736177962019 48.64414570257808 6.937127967590685e-12
    vertex 65.43736177962019 48.64414570258102 15.382875000006878
  endloop
endfacet
facet normal 1.0 0.0 0.0
  outer loop
    vertex 65.43736177962019 52.263645702578074 6.257560122708075e-12
    vertex 65.43736177962019 48.64414570258102 15.382875000006878
    vertex 65.43736177962019 48.64414570257808 6.937127967590685e-12
  endloop
endfacet
facet normal 1.0 0.0 0.0
  outer loop
    vertex 65.43736177962019 48.64414570258102 15.382875000006878
    vertex 65.43736177962019 52.263645702578074 6.257560122708075e-12
    vertex 65.43736177962019 52.263645702581016 15.382875000006202
  endloop
endfacet
facet normal 8.414516322355849e-30 -1.0 1.9142857234007526e-13
  outer loop
    vertex 72.6763617796202 52.263645702578074 6.257560122708075e-12
    vertex 65.43736177962019 52.263645702581016 15.382875000006202
    vertex 65.43736177962019 52.263645702578074 6.257560122708075e-12
  endloop
endfacet
facet normal 8.414516322355849e-30 -1.0 1.9142857234007526e-13
  outer loop
    vertex 65.43736177962019 52.263645702581016 15.382875000006202
    vertex 72.6763617796202 52.263645702578074 6.257560122708075e-12
    vertex 72.6763617796202 52.263645702581016 15.382875000006202
  endloop
endfacet
facet normal -1.0 0.0 0.0
  outer loop
    vertex 72.6763617796202 48.64414570258102 15.382875000006878
    vertex 72.6763617796202 52.263645702578074 6.257560122708075e-12
    vertex 72.6763617796202 48.64414570257808 6.937127967590685e-12
  endloop
endfacet
facet normal -1.0 0.0 0.0
  outer loop
    vertex 72.6763617796202 52.263645702578074 6.257560122708075e-12
    vertex 72.6763617796202 48.64414570258102 15.382875000006878
    vertex 72.6763617796202 52.263645702581016 15.382875000006202
  endloop
endfacet
facet normal 1.2886230772169153e-41 -1.0 1.9142857234007526e-13
  outer loop
    vertex 76.29586177962018 48.64414570257808 6.937127967590685e-12
    vertex 72.6763617796202 48.64414570258102 15.382875000006878
    vertex 72.6763617796202 48.64414570257808 6.937127967590685e-12
  endloop
endfacet
facet normal 1.2886230772169153e-41 -1.0 1.9142857234007526e-13
  outer loop
    vertex 72.6763617796202 48.64414570258102 15.382875000006878
    vertex 76.29586177962018 48.64414570257808 6.937127967590685e-12
    vertex 76.29586177962018 48.64414570258102 15.382875000006878
  endloop
endfacet
facet normal -1.0 0.0 0.0
  outer loop
    vertex 76.29586177962018 45.024645702581026 15.382875000007562
    vertex 76.29586177962018 48.64414570257808 6.937127967590685e-12
    vertex 76.29586177962018 45.024645702578084 7.629554859633714e-12
  endloop
endfacet
facet normal -1.0 0.0 0.0
  outer loop
    vertex 76.29586177962018 48.64414570257808 6.937127967590685e-12
    vertex 76.29586177962018 45.024645702581026 15.382875000007562
    vertex 76.29586177962018 48.64414570258102 15.382875000006878
  endloop
endfacet
facet normal 0.0 -1.0 1.9142857234007536e-13
  outer loop
    vertex 79.91536177962018 45.024645702578084 7.629554859633714e-12
    vertex 76.29586177962018 45.024645702581026 15.382875000007562
    vertex 76.29586177962018 45.024645702578084 7.629554859633714e-12
  endloop
endfacet
facet normal 0.0 -1.0 1.9142857234007536e-13
  outer loop
    vertex 76.29586177962018 45.024645702581026 15.382875000007562
    vertex 79.91536177962018 45.024645702578084 7.629554859633714e-12
    vertex 79.91536177962018 45.024645702581026 15.382875000007562
  endloop
endfacet
facet normal -1.0 0.0 0.0
  outer loop
    vertex 79.91536177962018 39.59539570258102 15.3828750000086
    vertex 79.91536177962018 45.024645702578084 7.629554859633714e-12
    vertex 79.91536177962018 39.59539570257808 8.655336150537839e-12
  endloop
endfacet
facet normal -1.0 0.0 0.0
  outer loop
    vertex 79.91536177962018 45.024645702578084 7.629554859633714e-12
    vertex 79.91536177962018 39.59539570258102 15.3828750000086
    vertex 79.91536177962018 45.024645702581026 15.382875000007562
  endloop
endfacet
facet normal -6.443115386084577e-42 -1.0 1.9142857234007526e-13
  outer loop
    vertex 83.53486177962019 39.59539570257808 8.655336150537839e-12
    vertex 79.91536177962018 39.59539570258102 15.3828750000086
    vertex 79.91536177962018 39.59539570257808 8.655336150537839e-12
  endloop
endfacet
facet normal -6.443115386084577e-42 -1.0 1.9142857234007526e-13
  outer loop
    vertex 79.91536177962018 39.59539570258102 15.3828750000086
    vertex 83.53486177962019 39.59539570257808 8.655336150537839e-12
    vertex 83.53486177962019 39.59539570258102 15.3828750000086
  endloop
endfacet
facet normal 1.0 0.0 0.0
  outer loop
    vertex 83.53486177962019 55.30852112158106 15.382875000005594
    vertex 83.53486177962019 39.59539570257808 8.655336150537839e-12
    vertex 83.53486177962019 55.308521121578124 5.649343444871165e-12
  endloop
endfacet
facet normal 1.0 0.0 0.0
  outer loop
    vertex 83.53486177962019 39.59539570257808 8.655336150537839e-12
    vertex 83.53486177962019 55.30852112158106 15.382875000005594
    vertex 83.53486177962019 39.59539570258102 15.3828750000086
  endloop
endfacet
facet normal -1.2829959022072345e-41 1.0 -1.9059263970976924e-13
  outer loop
    vertex 83.53486177962019 55.30852112158106 15.382875000005594
    vertex 79.91536177962018 55.308521121578124 5.649343444871165e-12
    vertex 79.91536177962018 55.30852112158106 15.382875000005594
  endloop
endfacet
facet normal -1.2829959022072345e-41 1.0 -1.9059263970976924e-13
  outer loop
    vertex 79.91536177962018 55.308521121578124 5.649343444871165e-12
    vertex 83.53486177962019 55.30852112158106 15.382875000005594
    vertex 83.53486177962019 55.308521121578124 5.649343444871165e-12
  endloop
endfacet
facet normal 1.0 0.0 0.0
  outer loop
    vertex 79.91536177962018 58.60617156207809 5.031346891655922e-12
    vertex 79.91536177962018 55.30852112158106 15.382875000005594
    vertex 79.91536177962018 55.308521121578124 5.649343444871165e-12
  endloop
endfacet
facet normal 1.0 0.0 0.0
  outer loop
    vertex 79.91536177962018 55.30852112158106 15.382875000005594
    vertex 79.91536177962018 58.60617156207809 5.031346891655922e-12
    vertex 79.91536177962018 58.60617156208102 15.382875000004963
  endloop
endfacet
facet normal 0.0 1.0 -1.9142857234007536e-13
  outer loop
    vertex 79.91536177962018 58.60617156208102 15.382875000004963
    vertex 76.29586177962018 58.60617156207809 5.031346891655922e-12
    vertex 76.29586177962018 58.60617156208102 15.382875000004963
  endloop
endfacet
facet normal 0.0 1.0 -1.9142857234007536e-13
  outer loop
    vertex 76.29586177962018 58.60617156207809 5.031346891655922e-12
    vertex 79.91536177962018 58.60617156208102 15.382875000004963
    vertex 79.91536177962018 58.60617156207809 5.031346891655922e-12
  endloop
endfacet
facet normal 1.0 0.0 0.0
  outer loop
    vertex 76.29586177962018 62.31457734058101 15.382875000004253
    vertex 76.29586177962018 58.60617156207809 5.031346891655922e-12
    vertex 76.29586177962018 62.31457734057807 4.309052870703225e-12
  endloop
endfacet
facet normal 1.0 0.0 0.0
  outer loop
    vertex 76.29586177962018 58.60617156207809 5.031346891655922e-12
    vertex 76.29586177962018 62.31457734058101 15.382875000004253
    vertex 76.29586177962018 58.60617156208102 15.382875000004963
  endloop
endfacet
facet normal -1.2886230772169153e-41 1.0 -1.9142857234007526e-13
  outer loop
    vertex 76.29586177962018 62.31457734058101 15.382875000004253
    vertex 72.6763617796202 62.31457734057807 4.309052870703225e-12
    vertex 72.6763617796202 62.31457734058101 15.382875000004253
  endloop
endfacet
facet normal -1.2886230772169153e-41 1.0 -1.9142857234007526e-13
  outer loop
    vertex 72.6763617796202 62.31457734057807 4.309052870703225e-12
    vertex 76.29586177962018 62.31457734058101 15.382875000004253
    vertex 76.29586177962018 62.31457734057807 4.309052870703225e-12
  endloop
endfacet
facet normal 1.0 0.0 0.0
  outer loop
    vertex 72.6763617796202 66.14836983808102 15.382875000003521
    vertex 72.6763617796202 62.31457734057807 4.309052870703225e-12
    vertex 72.6763617796202 66.14836983807807 3.5756308445167864e-12
  endloop
endfacet
facet normal 1.0 0.0 0.0
  outer loop
    vertex 72.6763617796202 62.31457734057807 4.309052870703225e-12
    vertex 72.6763617796202 66.14836983808102 15.382875000003521
    vertex 72.6763617796202 62.31457734058101 15.382875000004253
  endloop
endfacet
facet normal 6.443115386084575e-42 1.0 -1.9142857234007521e-13
  outer loop
    vertex 72.6763617796202 66.14836983808102 15.382875000003521
    vertex 69.05686177962019 66.14836983807807 3.5756308445167864e-12
    vertex 69.05686177962019 66.14836983808102 15.382875000003521
  endloop
endfacet
facet normal 6.443115386084575e-42 1.0 -1.9142857234007521e-13
  outer loop
    vertex 69.05686177962019 66.14836983807807 3.5756308445167864e-12
    vertex 72.6763617796202 66.14836983808102 15.382875000003521
    vertex 72.6763617796202 66.14836983807807 3.5756308445167864e-12
  endloop
endfacet
facet normal 1.0 0.0 0.0
  outer loop
    vertex 69.05686177962019 70.36114570258101 15.382875000002715
    vertex 69.05686177962019 66.14836983807807 3.5756308445167864e-12
    vertex 69.05686177962019 70.36114570257807 2.769707568172094e-12
  endloop
endfacet
facet normal 1.0 0.0 0.0
  outer loop
    vertex 69.05686177962019 66.14836983807807 3.5756308445167864e-12
    vertex 69.05686177962019 70.36114570258101 15.382875000002715
    vertex 69.05686177962019 66.14836983808102 15.382875000003521
  endloop
endfacet
facet normal 1.1102230246242691e-16 1.0 -1.9148081812946934e-13
  outer loop
    vertex 69.05686177962019 70.36114570258101 15.382875000002715
    vertex 65.43736177962019 70.36114570257956 7.691437500002767
    vertex 65.43736177962019 70.36114570258101 15.382875000002715
  endloop
endfacet
facet normal 1.1102230246242691e-16 1.0 -1.9148081812946934e-13
  outer loop
    vertex 54.5788617796202 70.36114570257956 7.691437500002767
    vertex 50.959361779620195 70.36114570257807 2.769707568172094e-12
    vertex 50.959361779620195 70.36114570257956 7.691437500002767
  endloop
endfacet
facet normal 1.1102230246242691e-16 1.0 -1.9148081812946934e-13
  outer loop
    vertex 50.959361779620195 70.36114570257807 2.769707568172094e-12
    vertex 54.5788617796202 70.36114570257956 7.691437500002767
    vertex 69.05686177962019 70.36114570257807 2.769707568172094e-12
  endloop
endfacet
facet normal 1.1102230246242691e-16 1.0 -1.9148081812946934e-13
  outer loop
    vertex 69.05686177962019 70.36114570257807 2.769707568172094e-12
    vertex 54.5788617796202 70.36114570257956 7.691437500002767
    vertex 65.43736177962019 70.36114570257956 7.691437500002767
  endloop
endfacet
facet normal 1.1102230246242691e-16 1.0 -1.9148081812946934e-13
  outer loop
    vertex 69.05686177962019 70.36114570257807 2.769707568172094e-12
    vertex 65.43736177962019 70.36114570257956 7.691437500002767
    vertex 69.05686177962019 70.36114570258101 15.382875000002715
  endloop
endfacet
facet normal 1.0 0.0 0.0
  outer loop
    vertex 50.959361779620195 73.98064570257807 2.090139723289483e-12
    vertex 50.959361779620195 70.36114570257956 7.691437500002767
    vertex 50.959361779620195 70.36114570257807 2.769707568172094e-12
  endloop
endfacet
facet normal 1.0 0.0 0.0
  outer loop
    vertex 50.959361779620195 70.36114570257956 7.691437500002767
    vertex 50.959361779620195 73.98064570257807 2.090139723289483e-12
    vertex 50.959361779620195 73.98064570257955 7.691437500002075
  endloop
endfacet
facet normal 0.0 1.0 -1.91304570256397e-13
  outer loop
    vertex 50.959361779620195 73.98064570257955 7.691437500002075
    vertex 47.3398617796202 73.98064570257807 2.090139723289483e-12
    vertex 47.3398617796202 73.98064570257955 7.691437500002075
  endloop
endfacet
facet normal 0.0 1.0 -1.91304570256397e-13
  outer loop
    vertex 47.3398617796202 73.98064570257807 2.090139723289483e-12
    vertex 50.959361779620195 73.98064570257955 7.691437500002075
    vertex 50.959361779620195 73.98064570257807 2.090139723289483e-12
  endloop
endfacet
facet normal 1.0 0.0 0.0
  outer loop
    vertex 47.3398617796202 84.83914570257956 7.6914374999999975
    vertex 47.3398617796202 73.98064570257807 2.090139723289483e-12
    vertex 47.3398617796202 84.83914570257807 -2.102563323248851e-26
  endloop
endfacet
facet normal 1.0 0.0 0.0
  outer loop
    vertex 47.3398617796202 73.98064570257807 2.090139723289483e-12
    vertex 47.3398617796202 84.83914570257956 7.6914374999999975
    vertex 47.3398617796202 73.98064570257955 7.691437500002075
  endloop
endfacet
facet normal 0.0 1.0 -1.91304570256397e-13
  outer loop
    vertex 47.3398617796202 84.83914570257956 7.6914374999999975
    vertex 39.7615336546202 84.83914570257807 -2.102563323248851e-26
    vertex 39.7615336546202 84.83914570257956 7.6914374999999975
  endloop
endfacet
facet normal 0.0 1.0 -1.91304570256397e-13
  outer loop
    vertex 39.7615336546202 84.83914570257807 -2.102563323248851e-26
    vertex 47.3398617796202 84.83914570257956 7.6914374999999975
    vertex 47.3398617796202 84.83914570257807 -2.102563323248851e-26
  endloop
endfacet
facet normal -1.0 0.0 0.0
  outer loop
    vertex 39.7615336546202 81.21964570257806 7.181449863638446e-13
    vertex 39.7615336546202 84.83914570257956 7.6914374999999975
    vertex 39.7615336546202 84.83914570257807 -2.102563323248851e-26
  endloop
endfacet
facet normal -1.0 0.0 0.0
  outer loop
    vertex 39.7615336546202 84.83914570257956 7.6914374999999975
    vertex 39.7615336546202 81.21964570257806 7.181449863638446e-13
    vertex 39.7615336546202 81.21964570257956 7.691437500000715
  endloop
endfacet
facet normal 1.0 0.0 0.0
  outer loop
    vertex 36.4813617796202 17.32864794507809 1.2927925808454384e-11
    vertex 36.4813617796202 13.70914794508103 15.38287500001355
    vertex 36.4813617796202 13.709147945078087 1.3607493653336995e-11
  endloop
endfacet
facet normal 1.0 0.0 0.0
  outer loop
    vertex 36.4813617796202 13.70914794508103 15.38287500001355
    vertex 36.4813617796202 17.32864794507809 1.2927925808454384e-11
    vertex 36.4813617796202 17.328647945081034 15.38287500001286
  endloop
endfacet
facet normal 0.0 -1.0 1.9142857234007536e-13
  outer loop
    vertex 40.1008617796202 17.32864794507809 1.2927925808454384e-11
    vertex 36.4813617796202 17.328647945081034 15.38287500001286
    vertex 36.4813617796202 17.32864794507809 1.2927925808454384e-11
  endloop
endfacet
facet normal 0.0 -1.0 1.9142857234007536e-13
  outer loop
    vertex 36.4813617796202 17.328647945081034 15.38287500001286
    vertex 40.1008617796202 17.32864794507809 1.2927925808454384e-11
    vertex 40.1008617796202 17.328647945081034 15.38287500001286
  endloop
endfacet
facet normal -1.0 0.0 0.0
  outer loop
    vertex 40.1008617796202 13.70914794508103 15.38287500001355
    vertex 40.1008617796202 17.32864794507809 1.2927925808454384e-11
    vertex 40.1008617796202 13.709147945078087 1.3607493653336995e-11
  endloop
endfacet
facet normal -1.0 0.0 0.0
  outer loop
    vertex 40.1008617796202 17.32864794507809 1.2927925808454384e-11
    vertex 40.1008617796202 13.70914794508103 15.38287500001355
    vertex 40.1008617796202 17.328647945081034 15.38287500001286
  endloop
endfacet
facet normal 6.443115386084577e-42 1.0 -1.9142857234007526e-13
  outer loop
    vertex 40.1008617796202 13.70914794508103 15.38287500001355
    vertex 36.4813617796202 13.709147945078087 1.3607493653336995e-11
    vertex 36.4813617796202 13.70914794508103 15.38287500001355
  endloop
endfacet
facet normal 6.443115386084577e-42 1.0 -1.9142857234007526e-13
  outer loop
    vertex 36.4813617796202 13.709147945078087 1.3607493653336995e-11
    vertex 40.1008617796202 13.70914794508103 15.38287500001355
    vertex 40.1008617796202 13.709147945078087 1.3607493653336995e-11
  endloop
endfacet
facet normal 0.0 1.91304570256397e-13 1.0
  outer loop
    vertex 25.62286177962021 37.78564570257912 5.429250000009
    vertex 29.24236177962021 45.02464570257912 5.429250000007627
    vertex 25.62286177962021 45.02464570257912 5.429250000007627
  endloop
endfacet
facet normal 0.0 1.91304570256397e-13 1.0
  outer loop
    vertex 29.24236177962021 45.02464570257912 5.429250000007627
    vertex 25.62286177962021 37.78564570257912 5.429250000009
    vertex 29.24236177962021 41.40514570257912 5.429250000008307
  endloop
endfacet
facet normal 0.0 1.91304570256397e-13 1.0
  outer loop
    vertex 29.24236177962021 41.40514570257912 5.429250000008307
    vertex 25.62286177962021 37.78564570257912 5.429250000009
    vertex 32.861861779620206 41.40514570257912 5.429250000008307
  endloop
endfacet
facet normal 0.0 1.91304570256397e-13 1.0
  outer loop
    vertex 32.861861779620206 41.40514570257912 5.429250000008307
    vertex 25.62286177962021 37.78564570257912 5.429250000009
    vertex 32.861861779620206 37.78564570257912 5.429250000009
  endloop
endfacet
facet normal -1.0 0.0 0.0
  outer loop
    vertex 32.861861779620206 30.546645702578086 1.0399262427805828e-11
    vertex 32.861861779620206 37.78564570257912 5.429250000009
    vertex 32.861861779620206 37.78564570257808 9.001549596559353e-12
  endloop
endfacet
facet normal -1.0 0.0 0.0
  outer loop
    vertex 32.861861779620206 37.78564570257912 5.429250000009
    vertex 32.861861779620206 30.546645702578086 1.0399262427805828e-11
    vertex 32.861861779620206 30.54664570258103 15.382875000010356
  endloop
endfacet
facet normal -1.0 0.0 0.0
  outer loop
    vertex 32.861861779620206 37.78564570257912 5.429250000009
    vertex 32.861861779620206 30.54664570258103 15.382875000010356
    vertex 32.861861779620206 41.40514570257912 5.429250000008307
  endloop
endfacet
facet normal -1.0 0.0 0.0
  outer loop
    vertex 32.861861779620206 41.40514570257912 5.429250000008307
    vertex 32.861861779620206 30.54664570258103 15.382875000010356
    vertex 32.861861779620206 37.785645702579984 9.953625000008998
  endloop
endfacet
facet normal -1.0 0.0 0.0
  outer loop
    vertex 32.861861779620206 37.785645702579984 9.953625000008998
    vertex 32.861861779620206 30.54664570258103 15.382875000010356
    vertex 32.861861779620206 37.78564570258102 15.382875000008946
  endloop
endfacet
facet normal -1.0 0.0 0.0
  outer loop
    vertex 32.861861779620206 41.40514570257912 5.429250000008307
    vertex 32.861861779620206 52.263645702578074 6.257560122708075e-12
    vertex 32.861861779620206 41.40514570257808 8.309122704516325e-12
  endloop
endfacet
facet normal -1.0 0.0 0.0
  outer loop
    vertex 32.861861779620206 52.263645702578074 6.257560122708075e-12
    vertex 32.861861779620206 41.40514570257912 5.429250000008307
    vertex 32.861861779620206 52.263645702581016 15.382875000006202
  endloop
endfacet
facet normal -1.0 0.0 0.0
  outer loop
    vertex 32.861861779620206 52.263645702581016 15.382875000006202
    vertex 32.861861779620206 41.40514570257912 5.429250000008307
    vertex 32.861861779620206 41.405145702579986 9.953625000008305
  endloop
endfacet
facet normal -1.0 0.0 0.0
  outer loop
    vertex 32.861861779620206 41.405145702579986 9.953625000008305
    vertex 32.861861779620206 41.40514570257912 5.429250000008307
    vertex 32.861861779620206 37.785645702579984 9.953625000008998
  endloop
endfacet
facet normal -1.0 0.0 0.0
  outer loop
    vertex 32.861861779620206 52.263645702581016 15.382875000006202
    vertex 32.861861779620206 41.405145702579986 9.953625000008305
    vertex 32.861861779620206 41.405145702581024 15.382875000008255
  endloop
endfacet
facet normal 3.4402272657217747e-16 1.912432700440776e-13 1.0
  outer loop
    vertex 39.7615336546202 81.21964570257956 7.691437500000715
    vertex 47.3398617796202 84.83914570257956 7.6914374999999975
    vertex 39.7615336546202 84.83914570257956 7.6914374999999975
  endloop
endfacet
facet normal 3.4402272657217747e-16 1.912432700440776e-13 1.0
  outer loop
    vertex 47.3398617796202 84.83914570257956 7.6914374999999975
    vertex 39.7615336546202 81.21964570257956 7.691437500000715
    vertex 43.7203617796202 81.21964570257956 7.691437500000715
  endloop
endfacet
facet normal 3.4402272657217747e-16 1.912432700440776e-13 1.0
  outer loop
    vertex 47.3398617796202 84.83914570257956 7.6914374999999975
    vertex 43.7203617796202 81.21964570257956 7.691437500000715
    vertex 47.3398617796202 73.98064570257955 7.691437500002075
  endloop
endfacet
facet normal 3.4402272657217747e-16 1.912432700440776e-13 1.0
  outer loop
    vertex 47.3398617796202 73.98064570257955 7.691437500002075
    vertex 43.7203617796202 81.21964570257956 7.691437500000715
    vertex 43.7203617796202 66.14836983807955 7.691437500003573
  endloop
endfacet
facet normal 3.4402272657217747e-16 1.912432700440776e-13 1.0
  outer loop
    vertex 47.3398617796202 73.98064570257955 7.691437500002075
    vertex 43.7203617796202 66.14836983807955 7.691437500003573
    vertex 50.959361779620195 73.98064570257955 7.691437500002075
  endloop
endfacet
facet normal 3.4402272657217747e-16 1.912432700440776e-13 1.0
  outer loop
    vertex 50.959361779620195 73.98064570257955 7.691437500002075
    vertex 43.7203617796202 66.14836983807955 7.691437500003573
    vertex 50.959361779620195 70.36114570257956 7.691437500002767
  endloop
endfacet
facet normal 3.4402272657217747e-16 1.912432700440776e-13 1.0
  outer loop
    vertex 50.959361779620195 70.36114570257956 7.691437500002767
    vertex 43.7203617796202 66.14836983807955 7.691437500003573
    vertex 54.5788617796202 70.36114570257956 7.691437500002767
  endloop
endfacet
facet normal 3.4402272657217747e-16 1.912432700440776e-13 1.0
  outer loop
    vertex 54.5788617796202 70.36114570257956 7.691437500002767
    vertex 43.7203617796202 66.14836983807955 7.691437500003573
    vertex 54.5788617796202 66.14836983807955 7.691437500003573
  endloop
endfacet
facet normal 1.480297366167044e-16 -1.904550591310308e-13 -1.0
  outer loop
    vertex 65.43736177962019 84.83914570257956 7.6914374999999975
    vertex 61.81786177962019 81.21964570257956 7.691437500000715
    vertex 57.859033654620205 84.83914570257956 7.6914374999999975
  endloop
endfacet
facet normal 1.480297366167044e-16 -1.904550591310308e-13 -1.0
  outer loop
    vertex 61.81786177962019 81.21964570257956 7.691437500000715
    vertex 65.43736177962019 84.83914570257956 7.6914374999999975
    vertex 65.43736177962019 70.36114570257956 7.691437500002767
  endloop
endfacet
facet normal 1.480297366167044e-16 -1.904550591310308e-13 -1.0
  outer loop
    vertex 61.81786177962019 81.21964570257956 7.691437500000715
    vertex 65.43736177962019 70.36114570257956 7.691437500002767
    vertex 61.81786177962019 77.60014570257955 7.691437500001408
  endloop
endfacet
facet normal 1.480297366167044e-16 -1.904550591310308e-13 -1.0
  outer loop
    vertex 61.81786177962019 77.60014570257955 7.691437500001408
    vertex 65.43736177962019 70.36114570257956 7.691437500002767
    vertex 58.198361779620186 77.60014570257955 7.691437500001408
  endloop
endfacet
facet normal 1.480297366167044e-16 -1.904550591310308e-13 -1.0
  outer loop
    vertex 58.198361779620186 77.60014570257955 7.691437500001408
    vertex 65.43736177962019 70.36114570257956 7.691437500002767
    vertex 58.198361779620186 73.98064570257955 7.691437500002075
  endloop
endfacet
facet normal 1.480297366167044e-16 -1.904550591310308e-13 -1.0
  outer loop
    vertex 58.198361779620186 73.98064570257955 7.691437500002075
    vertex 65.43736177962019 70.36114570257956 7.691437500002767
    vertex 54.5788617796202 73.98064570257955 7.691437500002075
  endloop
endfacet
facet normal 1.480297366167044e-16 -1.904550591310308e-13 -1.0
  outer loop
    vertex 54.5788617796202 73.98064570257955 7.691437500002075
    vertex 65.43736177962019 70.36114570257956 7.691437500002767
    vertex 54.5788617796202 70.36114570257956 7.691437500002767
  endloop
endfacet
facet normal 1.480297366167044e-16 -1.904550591310308e-13 -1.0
  outer loop
    vertex 57.859033654620205 81.21964570257956 7.691437500000715
    vertex 57.859033654620205 84.83914570257956 7.6914374999999975
    vertex 61.81786177962019 81.21964570257956 7.691437500000715
  endloop
endfacet
endsolid 3D_DinosaurGoogle
